<svg width="25" height="25" viewBox="0 0 25 25" fill="none" xmlns="http://www.w3.org/2000/svg">
<path d="M4.90642 0.256825C5.73122 -0.246987 6.80827 0.0132231 7.31208 0.838021L12.7855 9.7986L21.7461 4.32521C22.5709 3.82139 23.6479 4.08161 24.1517 4.9064C24.6555 5.7312 24.3953 6.80825 23.5705 7.31207L14.6099 12.7855L20.0833 21.746C20.5872 22.5708 20.3269 23.6479 19.5021 24.1517C18.6773 24.6555 17.6003 24.3953 17.0965 23.5705L11.6231 14.6099L2.66251 20.0833C1.83772 20.5871 0.760664 20.3269 0.256851 19.5021C-0.246961 18.6773 0.0132496 17.6003 0.838048 17.0965L9.79862 11.6231L4.32522 2.66249C3.82141 1.83769 4.08162 0.760637 4.90642 0.256825Z" fill="#E7E7E7"/>
</svg>
